<svg id="Layer_1" xmlns="http://www.w3.org/2000/svg" viewBox="0 0 409 213"><style>.st0{fill:#43b02a}</style><path class="st0" d="M145.1 83.8c-2 3.9-3.6 8-4.9 12.3 4.4 1.2 8.8 2 13.3 2.5.1-3.5.4-6.9.8-10.3-3.1-1.3-6.2-2.8-9.2-4.5zM163.2 38.4c-2.6 0-5.2.2-7.7.5.3 2.6.8 5.2 1.4 7.7 1.8-3 3.9-5.7 6.3-8.2-.1.1-.1.1 0 0zM142 100.2c3.4 5.1 7.6 9.7 12.4 13.6-.5-4-.8-7.9-.9-11.7-3.8-.4-7.7-1-11.5-1.9zM172.4 11c-4.6 1.6-9 3.7-13.1 6.4 3.1.5 6.1 1.3 9 2.1 1.3-2.9 2.6-5.8 4.1-8.5zM191.7 7.8c-2.3 0-4.6.1-6.8.4 3.2 2.2 6.2 4.6 9 7.2l2.4 2.2-2.3 2.2c-1.9 1.9-3.8 3.9-5.6 6l-.1.1s-.4.4-.9 1.1c1.4-.1 2.8-.2 4.3-.2 22.4 0 40.6 18.2 40.6 40.6S214.1 108 191.7 108c-7.8 0-15-2.2-21.2-6-3 .3-6.1.5-9.2.5-1.4 0-2.8 0-4.3-.1.1 4.6.5 9.4 1.3 14.4 9.5 6.4 21 10.2 33.4 10.2 32.9 0 59.6-26.7 59.6-59.6 0-33-26.7-59.6-59.6-59.6z"/><path class="st0" d="M183.8 21.8c1.2-1.4 2.4-2.8 3.7-4.1-2.8-2.4-5.7-4.5-8.8-6.5-1.9 3.2-3.5 6.5-5 9.9 2.7 1 5.3 2.1 7.9 3.4 1.2-1.5 2-2.4 2.2-2.7zM150.4 39.7c-4.4.8-8.7 2-12.9 3.5 1.7 4.3 3.8 8.5 6.2 12.4 2.8-2 5.7-3.8 8.7-5.5-.9-3.4-1.6-6.9-2-10.4zM142.6 62.2c-3.2 2.6-6.2 5.5-9 8.6 3.1 2.7 6.4 5.2 9.9 7.4 1.6-2.8 3.4-5.6 5.3-8.2-2.2-2.5-4.3-5.1-6.2-7.8zM157.8 89.6c-.4 3-.6 6.1-.7 9.2 3 .2 6 .1 9 0-3.3-2.7-6-5.8-8.3-9.2zM166.5 24.7c-3.7-1.1-7.5-1.9-11.4-2.4-.3 3.9-.4 7.8-.1 11.6 3-.4 6.1-.5 9.2-.5.5-3 1.3-5.9 2.3-8.7zM171.8 26.4c-.7 2.2-1.4 4.5-1.9 6.8 2.6-1.7 5.4-3 8.3-4.1-2.1-1-4.2-1.9-6.4-2.7zM132.7 75.3c.8 5.8 2.4 11.3 4.7 16.4 1.2-3.4 2.6-6.8 4.2-10-3.1-1.9-6.1-4.1-8.9-6.4zM149.8 25c-3.6 3.5-6.7 7.5-9.2 11.8 3.1-.9 6.2-1.7 9.4-2.2-.3-3.1-.4-6.3-.2-9.6zM146.3 59.4c1.5 2.2 3.2 4.3 4.9 6.3.1-3.7.8-7.3 1.9-10.7-2.4 1.4-4.7 2.8-6.8 4.4zM147 80.2c2.5 1.4 5.1 2.7 7.8 3.8-1.6-3.4-2.6-7.1-3.2-11-1.7 2.3-3.2 4.7-4.6 7.2zM140.1 58.4c-1.9-3-3.6-6.1-5.1-9.4-1.7 5.3-2.7 10.8-2.8 16.6 2.5-2.6 5.1-5 7.9-7.2z"/><g><path class="st0" d="M30.9 157c-.2-.4-.5-.8-1.2-.8H29c-.6 0-1 .3-1.2.8L6.3 203.5c-.4.9.1 1.8 1.2 1.8h6c1.1 0 1.7-.7 2-1.4l3.4-7.5h20.7L43 204c.5 1 1 1.4 2 1.4h6c1 0 1.6-.9 1.2-1.8L30.9 157zm-8.6 31.8l6.8-15.2h.2l6.9 15.2H22.3z"/></g><g><path class="st0" d="M96.8 156.9h-6.4c-.8 0-1.3.6-1.3 1.3v28.6H89l-28.8-30.6h-1.7c-.7 0-1.3.6-1.3 1.2V204c0 .7.6 1.3 1.3 1.3h6.3c.8 0 1.3-.6 1.3-1.3v-29.7h.1L95.1 206h1.7c.7 0 1.3-.6 1.3-1.2v-46.5c0-.7-.6-1.4-1.3-1.4z"/></g><g><path class="st0" d="M127.9 157c-.2-.4-.5-.8-1.2-.8h-.7c-.6 0-1 .3-1.2.8l-21.5 46.5c-.4.9.1 1.8 1.2 1.8h6c1.1 0 1.7-.7 2-1.4l3.4-7.5h20.7l3.4 7.5c.5 1 1 1.4 2 1.4h6c1 0 1.6-.9 1.2-1.8L127.9 157zm-8.6 31.8l6.8-15.2h.2l6.9 15.2h-13.9z"/></g><g><path class="st0" d="M187 193c-.4-.4-1.2-.5-1.7 0-2.9 2.4-6.4 3.9-10.6 3.9-8.9 0-15.5-7.3-15.5-16s6.6-16.1 15.4-16.1c3.9 0 7.7 1.5 10.6 4.1.6.6 1.2.6 1.7 0l4.2-4.4c.6-.6.6-1.4-.1-1.9-4.7-4.2-9.7-6.4-16.7-6.4-13.8 0-25 11.1-25 25 0 13.8 11.1 24.8 25 24.8 6.2 0 12.1-2.1 16.8-6.7.5-.5.6-1.4.1-1.9L187 193z"/></g><g><path class="st0" d="M219.6 156.3c-13.8 0-24.8 11.1-24.8 25 0 13.8 11 24.8 24.8 24.8s24.9-11 24.9-24.8c0-13.9-11-25-24.9-25zm0 40.8c-8.7 0-15.8-7.1-15.8-15.8s7.1-16 15.8-16 15.9 7.3 15.9 16c0 8.6-7.2 15.8-15.9 15.8z"/></g><g><path class="st0" d="M291.6 156.9h-6.4c-.8 0-1.3.6-1.3 1.3v28.6h-.1L255 156.2h-1.7c-.7 0-1.3.6-1.3 1.2V204c0 .7.6 1.3 1.3 1.3h6.3c.8 0 1.3-.6 1.3-1.3v-29.7h.1l29 31.7h1.7c.7 0 1.3-.6 1.3-1.2v-46.5c0-.7-.7-1.4-1.4-1.4z"/></g><g><path class="st0" d="M319.4 156.9H303c-.7 0-1.2.6-1.2 1.3V204c0 .7.6 1.3 1.2 1.3h16.4c13.3 0 24.3-10.9 24.3-24.3 0-13.2-11-24.1-24.3-24.1zm-.8 40h-7.9v-31.6h7.9c9 0 15.6 6.8 15.6 15.8-.1 9-6.7 15.8-15.6 15.8z"/></g><g><path class="st0" d="M389.9 203.6L368.6 157c-.2-.4-.5-.8-1.2-.8h-.7c-.6 0-1 .3-1.2.8L344 203.6c-.4.9.1 1.8 1.2 1.8h6c1.1 0 1.7-.7 2-1.4l3.4-7.5h20.7l3.4 7.5c.5 1 1 1.4 2 1.4h6c1-.1 1.6-.9 1.2-1.8zM360 188.8l6.8-15.2h.2l6.9 15.2H360z"/></g><g><path class="st0" d="M398.9 204h.4c.1 0 .2-.1.2-.2v-1.3h.7l.6 1.3c0 .1.1.2.2.2h.5c.2 0 .3-.2.2-.3-.2-.4-.4-.8-.6-1.3.3-.1.9-.4.9-1.2 0-.9-.7-1.3-1.4-1.3h-1.7c-.1 0-.2.1-.2.2v3.7c0 .1.1.2.2.2zm.6-3.3h1c.3 0 .6.2.6.6 0 .3-.2.6-.6.6h-1v-1.2z"/><path class="st0" d="M400.1 206c2.2 0 4.1-1.8 4.1-4.1 0-2.2-1.8-4.1-4.1-4.1-2.2 0-4.1 1.8-4.1 4.1.1 2.3 1.9 4.1 4.1 4.1zm0-7.3c1.8 0 3.3 1.5 3.3 3.3s-1.5 3.3-3.3 3.3-3.3-1.5-3.3-3.3c0-1.9 1.5-3.3 3.3-3.3z"/></g></svg>